<svg width="1920" height="1152" viewBox="0 0 1920 1152" fill="none" xmlns="http://www.w3.org/2000/svg">
<g id="Group 67" opacity="0.5">
<path id="Vector" fill-rule="evenodd" clip-rule="evenodd" d="M-1.99997 57L44 86C89 115 181 172 272 220C364 268 455 307 547 259C638 211 729 76 821 105C912 134 1004 326 1095 374C1187 422 1278 326 1369 307C1461 288 1552 345 1644 307C1735 268 1827 134 1872 67L1918 0V518H1872C1827 518 1735 518 1644 518C1552 518 1461 518 1369 518C1278 518 1187 518 1095 518C1004 518 912 518 821 518C729 518 638 518 547 518C455 518 364 518 272 518C181 518 89 518 44 518H-1.99997V57Z" fill="url(#paint0_linear)"/>
<path id="Vector_2" fill-rule="evenodd" clip-rule="evenodd" d="M1918 1055L1872 1026C1827 997 1735 940 1644 892C1552 844 1461 805 1369 853C1278 901 1187 1036 1095 1007C1004 978 912 786 821 738C729 690 638 786 547 805C455 824 364 767 272 805C181 844 89 978 44 1045L-2 1112L-1.99995 594L44 594C89 594 181 594 272 594C364 594 455 594 547 594C638 594 729 594 821 594C912 594 1004 594 1095 594C1187 594 1278 594 1369 594C1461 594 1552 594 1644 594C1735 594 1827 594 1872 594L1918 594L1918 1055Z" fill="url(#paint1_linear)"/>
<path id="Union" fill-rule="evenodd" clip-rule="evenodd" d="M-19.125 416.012H-108V531H-19.125H425.25H958.5H1491.75H1936.13H2025V243.031L1936.13 214.034C1847.25 185.037 1669.5 128.044 1491.75 99.0467C1314 70.0498 1136.25 70.0499 958.5 128.044C869.625 156.54 780.75 199.786 691.875 243.031C603 286.276 514.125 329.522 425.25 358.019C247.5 416.012 69.75 416.012 -19.125 416.012ZM-108 531L-108 818.969L-19.1249 847.966C69.7501 876.963 247.5 933.956 425.25 962.953C603 991.95 780.75 991.95 958.5 933.957C1047.38 905.46 1136.25 862.214 1225.13 818.969C1314 775.724 1402.88 732.478 1491.75 703.982C1669.5 645.988 1847.25 645.988 1936.13 645.988H2025V531H1936.13L1491.75 531L958.5 531L425.25 531L-19.1249 531H-108Z" fill="url(#paint2_linear)"/>
<path id="Union_2" fill-rule="evenodd" clip-rule="evenodd" d="M-181.77 86L-327 0V576L-327 864L-181.77 874C-179.731 874.128 -177.662 874.257 -175.565 874.388C-29.6638 883.527 256.661 901.461 541.667 864C628.844 852.541 716.146 835.809 803.496 819.067C1005.82 780.288 1208.41 741.459 1410.33 768C1699.44 806 1989.9 979 2133.77 1066L2279 1152V576L2133.77 576H2279V288L2133.77 278L2127.56 277.611C1981.66 268.473 1695.34 250.539 1410.33 288C1323.16 299.459 1235.85 316.191 1148.5 332.933C946.18 371.712 743.592 410.541 541.667 384C252.564 346 -37.8968 173 -181.77 86Z" fill="url(#paint3_linear)"/>
</g>
<defs>
<linearGradient id="paint0_linear" x1="958" y1="0" x2="958" y2="518" gradientUnits="userSpaceOnUse">
<stop stop-color="#016186"/>
<stop offset="1" stop-color="#016186" stop-opacity="0"/>
</linearGradient>
<linearGradient id="paint1_linear" x1="958" y1="1112" x2="958" y2="594" gradientUnits="userSpaceOnUse">
<stop stop-color="#016186"/>
<stop offset="1" stop-color="#016186" stop-opacity="0"/>
</linearGradient>
<linearGradient id="paint2_linear" x1="2701.33" y1="-98.9293" x2="1779.88" y2="1866.91" gradientUnits="userSpaceOnUse">
<stop stop-color="#DA251C"/>
<stop offset="1" stop-color="#E46713" stop-opacity="0.07"/>
</linearGradient>
<linearGradient id="paint3_linear" x1="3105.31" y1="-228.522" x2="1895.31" y2="2240.91" gradientUnits="userSpaceOnUse">
<stop stop-color="#DA251C"/>
<stop offset="1" stop-color="#E46713" stop-opacity="0.07"/>
</linearGradient>
</defs>
</svg>
