<svg viewBox="0 0 260 263" fill="none" xmlns="http://www.w3.org/2000/svg">
<g id="Aviva Jovem Cicle">
<circle id="Ellipse 4" cx="130" cy="120.991" r="119.5" fill="#FDFBFA" stroke="#EFECE9"/>
<g id="Group 12">
<circle id="Ellipse 5" cx="130" cy="120.991" r="69.5" fill="#FDFBFA" stroke="#EFECE9"/>
<g id="Group 2" filter="url(#filter0_ddddd_715_46)">
<circle id="arco" cx="128.742" cy="120.534" r="28.41" stroke="url(#paint0_linear_715_46)" stroke-width="3.6145"/>
<path id="fire-1" d="M137.675 131.161C121.554 120.751 118.913 106.957 110.421 104.63C112.725 109.52 114.036 114.245 110.421 116.486C106.807 118.727 102.618 121.159 104.349 128.125C101.089 124.714 97.6426 122.01 97.8022 114.317C93.2279 134.608 108.79 153.932 129.867 153.932C152.309 153.065 166.333 133.691 160.984 112.293C160.331 121.548 154.723 128.987 147.827 132.823C147.827 132.823 153.795 141.57 137.675 131.161Z" fill="#DA251C"/>
<path id="fire-2" d="M144.398 122.992C147.899 106.951 145.091 98.6958 120.542 86.9915C124.941 106.943 117.506 112.076 109.12 122.992C99.5822 134.197 109.265 153.86 127.12 153.86C144.976 153.86 157.737 139.379 151.121 112.004C149.413 116.641 147.906 119.477 144.398 122.992Z" fill="#E46713"/>
<path id="fire-3" opacity="0.5" d="M131.891 130.293C132.325 123.643 140.422 109.835 126.325 102.678C134.855 115.546 122.421 128.92 117.795 136.944C113.168 144.968 120.253 153.932 126.687 153.932C138.759 154.872 148.988 144.556 138.759 130.872C136.084 138.245 131.458 136.944 131.891 130.293Z" fill="url(#paint1_linear_715_46)"/>
</g>
</g>
<g id="avivajovem" class="avivajovem">
<path id="A" d="M109.614 210.541L118.08 212.145L120.322 208.29L123.784 208.946L112.683 227.819L108.842 227.092L105.455 205.473L108.946 206.135L109.614 210.541ZM110.029 213.422L111.527 223.441L116.634 214.674L110.029 213.422Z" fill="#121210"/>
<path id="v" d="M86.9685 200.757L76.4949 210.175L73.3539 208.451L86.6887 197.158L90.219 199.096L87.7609 216.359L84.594 214.621L86.9685 200.757Z" fill="#121210"/>
<path id="i" d="M58.8141 199.713C59.2659 200.125 59.5046 200.624 59.5303 201.209C59.5559 201.794 59.3617 202.312 58.9478 202.763C58.5338 203.213 58.0335 203.452 57.447 203.477C56.8605 203.503 56.3414 203.31 55.8895 202.897C55.4523 202.497 55.2208 202.005 55.1952 201.42C55.1696 200.835 55.3637 200.317 55.7777 199.867C56.1917 199.416 56.6919 199.178 57.2784 199.152C57.8649 199.126 58.3768 199.313 58.8141 199.713ZM59.052 197.002L70.0891 184.985L72.5814 187.262L61.5443 199.279L59.052 197.002Z" fill="#121210"/>
<path id="v_2" d="M55.0814 172.157L41.452 175.715L39.4526 172.742L56.485 168.831L58.7322 172.173L48.6233 186.38L46.6074 183.382L55.0814 172.157Z" fill="#121210"/>
<path id="a" d="M40.4353 156.923C38.8582 157.367 37.3701 157.438 35.9711 157.135C34.5667 156.813 33.3732 156.185 32.3907 155.252C31.3838 154.305 30.6866 153.148 30.2992 151.78C29.9495 150.546 29.8925 149.403 30.1282 148.352C30.3396 147.287 30.7283 146.378 31.2943 145.624L29.0141 146.266L28.0859 142.99L43.7906 138.565L44.7188 141.841L42.3816 142.5C43.2787 142.842 44.1088 143.418 44.8719 144.228C45.635 145.039 46.1887 146.052 46.5331 147.267C46.9151 148.616 46.9228 149.947 46.5562 151.26C46.1707 152.579 45.4545 153.745 44.4077 154.758C43.3366 155.757 42.0125 156.479 40.4353 156.923ZM36.8522 144.058C35.7691 144.363 34.8931 144.856 34.2242 145.536C33.5499 146.198 33.106 146.949 32.8924 147.788C32.6789 148.628 32.6905 149.466 32.9272 150.301C33.164 151.137 33.5936 151.857 34.2161 152.461C34.8196 153.07 35.585 153.49 36.5122 153.721C37.415 153.939 38.4079 153.895 39.491 153.59C40.5741 153.284 41.4623 152.798 42.1556 152.131C42.8435 151.445 43.3037 150.68 43.5363 149.835C43.7445 148.976 43.7329 148.138 43.5015 147.322C43.2647 146.486 42.8351 145.766 42.2126 145.162C41.5901 144.558 40.8179 144.15 39.8961 143.938C38.9499 143.713 37.9353 143.752 36.8522 144.058Z" fill="#121210"/>
<path id="J" d="M21.95 112.618L36.7738 113.21C38.6083 113.283 40.0355 113.903 41.0555 115.07C42.0764 116.217 42.5503 117.698 42.4775 119.513C42.4046 121.328 41.813 122.776 40.7027 123.858C39.5931 124.92 38.1211 125.414 36.2866 125.341L36.4233 121.938C37.3314 121.955 38.0605 121.757 38.6106 121.344C39.1614 120.912 39.4542 120.261 39.489 119.394C39.5239 118.526 39.2841 117.854 38.7698 117.379C38.2357 116.903 37.5248 116.648 36.6371 116.612L21.8133 116.02L21.95 112.618Z" fill="url(#paint2_linear_715_46)"/>
<path id="o" d="M47.3453 92.5981C46.8193 94.0454 46.0191 95.236 44.9445 96.17C43.8513 97.0973 42.5892 97.6802 41.1583 97.9186C39.7088 98.1504 38.195 97.981 36.6169 97.4106C35.0574 96.8469 33.799 96.0036 32.8417 94.8809C31.8844 93.7582 31.2967 92.4857 31.0784 91.0633C30.8602 89.641 31.0174 88.1969 31.5501 86.7312C32.0828 85.2654 32.8898 84.0562 33.9711 83.1036C35.0525 82.1511 36.3213 81.5496 37.7775 81.2993C39.2338 81.0491 40.7417 81.2058 42.3012 81.7695C43.8607 82.3332 45.1157 83.1857 46.0663 84.327C47.0168 85.4683 47.6037 86.772 47.8271 88.2381C48.0386 89.679 47.878 91.1324 47.3453 92.5981ZM44.5883 91.6016C44.885 90.7852 44.9665 89.954 44.8329 89.108C44.7059 88.2435 44.3335 87.4476 43.7156 86.7205C43.0977 85.9933 42.2317 85.4284 41.1178 85.0257C40.0039 84.6231 38.9888 84.4976 38.0725 84.6491C37.1376 84.794 36.3472 85.1485 35.7011 85.7127C35.0549 86.2768 34.5835 86.967 34.2869 87.7834C33.9902 88.5998 33.9086 89.431 34.0423 90.2769C34.1827 91.1044 34.5686 91.8631 35.2 92.5532C35.8128 93.2365 36.6762 93.7795 37.7902 94.1822C39.4425 94.7794 40.8753 94.825 42.0884 94.3189C43.2897 93.7876 44.123 92.8818 44.5883 91.6016Z" fill="url(#paint3_linear_715_46)"/>
<path id="v_3" d="M57.633 66.5345L49.9019 54.7859L52.0894 51.9481L61.2412 66.8009L58.7825 69.9905L42.0558 64.9644L44.2614 62.1032L57.633 66.5345Z" fill="url(#paint4_linear_715_46)"/>
<path id="e" d="M80.3699 38.5329C80.7238 39.0321 81.0112 39.5058 81.2321 39.954L71.0433 47.1377C71.8775 48.1438 72.8779 48.7187 74.0444 48.8624C75.211 49.006 76.3106 48.7139 77.3432 47.9858C78.8275 46.9393 79.4367 45.5798 79.1707 43.9074L82.1475 41.8086C82.6118 43.317 82.5912 44.8411 82.0858 46.3811C81.585 47.8936 80.5522 49.2015 78.9871 50.305C77.7125 51.2037 76.3672 51.7295 74.9512 51.8825C73.5399 52.008 72.1785 51.7601 70.867 51.1389C69.5602 50.4902 68.4216 49.4814 67.4512 48.1124C66.4808 46.7435 65.9045 45.3502 65.7225 43.9327C65.5451 42.4877 65.7568 41.1307 66.3575 39.8617C66.9744 38.5814 67.9363 37.4805 69.2431 36.5591C70.5016 35.6718 71.817 35.1549 73.1894 35.0086C74.5617 34.8623 75.8761 35.095 77.1325 35.7067C78.3774 36.3024 79.4566 37.2444 80.3699 38.5329ZM76.8735 39.6937C76.1381 38.6905 75.1985 38.1331 74.0548 38.0216C72.9111 37.9102 71.8148 38.2241 70.7661 38.9636C69.8142 39.6347 69.2163 40.5152 68.9725 41.605C68.7173 42.6787 68.8905 43.7764 69.492 44.8981L76.8735 39.6937Z" fill="url(#paint5_linear_715_46)"/>
<path id="m" d="M111.425 18.6042C112.675 18.3114 113.85 18.3096 114.953 18.5987C116.075 18.8833 117.034 19.4695 117.831 20.3573C118.648 21.2406 119.226 22.4029 119.566 23.844L121.772 33.2115L118.515 33.9749L116.423 25.0974C116.088 23.6755 115.477 22.6731 114.589 22.0904C113.697 21.4884 112.636 21.3315 111.406 21.6198C110.175 21.908 109.286 22.522 108.736 23.4618C108.202 24.3778 108.102 25.5468 108.437 26.9688L110.528 35.8462L107.27 36.6096L105.179 27.7322C104.844 26.3102 104.233 25.3079 103.345 24.7251C102.453 24.1232 101.392 23.9663 100.161 24.2546C98.9313 24.5428 98.0416 25.1568 97.4922 26.0966C96.9576 27.0126 96.8578 28.1816 97.1928 29.6035L99.2842 38.481L95.9975 39.2512L92.256 23.3697L95.5428 22.5996L95.9705 24.4154C96.3548 23.636 96.9172 22.9669 97.6577 22.4081C98.3981 21.8494 99.2393 21.4596 100.181 21.239C101.45 20.9417 102.647 20.945 103.773 21.2488C104.9 21.5526 105.852 22.1507 106.63 23.043C106.884 21.9696 107.455 21.035 108.342 20.239C109.225 19.4239 110.253 18.8789 111.425 18.6042Z" fill="url(#paint6_linear_715_46)"/>
<path id="A_2" d="M148.826 31.3216L140.331 29.8741L138.162 33.7699L134.688 33.1779L145.437 14.1026L149.29 14.7592L153.078 36.3118L149.575 35.7148L148.826 31.3216ZM148.357 28.4481L146.673 18.4586L141.731 27.3189L148.357 28.4481Z" fill="#121210"/>
<path id="v_4" d="M171.648 40.6861L181.945 31.0757L185.118 32.7414L171.995 44.2795L168.429 42.4073L170.567 25.1011L173.765 26.7806L171.648 40.6861Z" fill="#121210"/>
<path id="i_2" d="M199.818 41.2103C199.358 40.806 199.11 40.3116 199.074 39.7272C199.037 39.1429 199.222 38.6215 199.627 38.1632C200.033 37.7049 200.529 37.4575 201.115 37.4209C201.701 37.3844 202.223 37.5682 202.683 37.9726C203.127 38.3639 203.368 38.8517 203.404 39.4361C203.441 40.0204 203.256 40.5418 202.851 41.0001C202.445 41.4584 201.949 41.7058 201.363 41.7424C200.777 41.7789 200.262 41.6016 199.818 41.2103ZM199.63 43.9248L188.817 56.1438L186.283 53.9135L197.096 41.6944L199.63 43.9248Z" fill="#121210"/>
<path id="v_5" d="M204.06 68.6926L217.622 64.8827L219.676 67.8185L202.719 72.0436L200.41 68.7438L210.254 54.3527L212.325 57.3128L204.06 68.6926Z" fill="#121210"/>
<path id="a_2" d="M218.987 83.6531C220.556 83.1796 222.043 83.0815 223.447 83.3587C224.857 83.6548 226.062 84.2603 227.062 85.1752C228.086 86.1033 228.805 87.2474 229.217 88.6076C229.59 89.8355 229.668 90.977 229.452 92.032C229.26 93.1003 228.889 94.0167 228.337 94.7813L230.605 94.0968L231.593 97.3554L215.973 102.07L214.984 98.8113L217.309 98.1097C216.406 97.7844 215.565 97.2236 214.787 96.4273C214.009 95.6311 213.437 94.6285 213.07 93.4195C212.663 92.0782 212.63 90.7477 212.972 89.4278C213.334 88.1021 214.028 86.9234 215.056 85.8914C216.108 84.8726 217.419 84.1265 218.987 83.6531ZM222.809 96.4498C223.886 96.1246 224.753 95.6156 225.409 94.9226C226.071 94.2486 226.501 93.4899 226.699 92.6465C226.897 91.8032 226.869 90.9659 226.617 90.1347C226.365 89.3035 225.922 88.5918 225.289 87.9994C224.674 87.4013 223.901 86.9954 222.969 86.7816C222.063 86.581 221.071 86.6433 219.993 86.9684C218.916 87.2936 218.037 87.796 217.356 88.4758C216.681 89.1744 216.235 89.9483 216.018 90.7973C215.826 91.6596 215.853 92.4968 216.1 93.3091C216.352 94.1403 216.795 94.8521 217.429 95.4445C218.062 96.0368 218.842 96.4304 219.767 96.6254C220.718 96.8334 221.731 96.7749 222.809 96.4498Z" fill="#121210"/>
<path id="J_2" d="M238.293 127.61L223.461 127.291C221.625 127.252 220.187 126.658 219.145 125.511C218.103 124.382 217.602 122.91 217.641 121.095C217.68 119.279 218.245 117.82 219.335 116.718C220.425 115.635 221.887 115.114 223.723 115.153L223.649 118.558C222.741 118.558 222.016 118.77 221.473 119.192C220.931 119.635 220.65 120.29 220.631 121.159C220.612 122.027 220.865 122.694 221.388 123.16C221.931 123.625 222.646 123.868 223.534 123.887L238.366 124.205L238.293 127.61Z" fill="url(#paint7_linear_715_46)"/>
<path id="o_2" d="M213.274 148.095C213.773 146.639 214.551 145.434 215.609 144.48C216.684 143.532 217.935 142.926 219.362 142.661C220.806 142.403 222.323 142.544 223.911 143.085C225.481 143.62 226.755 144.44 227.733 145.545C228.711 146.65 229.322 147.911 229.567 149.329C229.811 150.747 229.681 152.194 229.175 153.67C228.67 155.145 227.885 156.369 226.822 157.341C225.759 158.314 224.501 158.939 223.05 159.216C221.599 159.493 220.088 159.364 218.518 158.829C216.949 158.294 215.678 157.465 214.707 156.342C213.735 155.218 213.124 153.926 212.874 152.464C212.635 151.027 212.769 149.571 213.274 148.095ZM216.049 149.041C215.768 149.863 215.702 150.695 215.851 151.539C215.994 152.401 216.381 153.19 217.012 153.905C217.644 154.621 218.52 155.17 219.641 155.552C220.762 155.934 221.78 156.04 222.693 155.872C223.625 155.71 224.409 155.341 225.044 154.765C225.68 154.189 226.138 153.49 226.42 152.668C226.701 151.846 226.767 151.014 226.618 150.17C226.462 149.346 226.062 148.594 225.418 147.916C224.793 147.244 223.919 146.717 222.798 146.335C221.135 145.768 219.702 145.749 218.498 146.278C217.307 146.831 216.491 147.752 216.049 149.041Z" fill="url(#paint8_linear_715_46)"/>
<path id="v_6" d="M203.472 174.345L211.42 185.949L209.285 188.827L199.86 174.146L202.259 170.911L219.076 175.627L216.924 178.528L203.472 174.345Z" fill="url(#paint9_linear_715_46)"/>
<path id="e_2" d="M181.258 202.762C180.895 202.27 180.599 201.801 180.37 201.357L190.424 193.986C189.571 192.996 188.561 192.44 187.392 192.318C186.222 192.195 185.129 192.508 184.11 193.255C182.645 194.329 182.061 195.699 182.358 197.366L179.42 199.52C178.928 198.02 178.921 196.496 179.397 194.947C179.87 193.426 180.879 192.099 182.423 190.967C183.681 190.045 185.016 189.494 186.429 189.315C187.838 189.163 189.204 189.386 190.526 189.983C191.845 190.607 193.002 191.595 193.998 192.945C194.993 194.296 195.595 195.678 195.804 197.092C196.008 198.534 195.821 199.894 195.244 201.174C194.651 202.466 193.71 203.584 192.42 204.53C191.178 205.44 189.872 205.981 188.503 206.153C187.134 206.325 185.815 206.116 184.548 205.528C183.292 204.955 182.195 204.033 181.258 202.762ZM184.733 201.537C185.487 202.526 186.436 203.066 187.582 203.156C188.728 203.247 189.818 202.913 190.853 202.154C191.792 201.465 192.373 200.574 192.597 199.48C192.832 198.401 192.639 197.307 192.017 196.197L184.733 201.537Z" fill="url(#paint10_linear_715_46)"/>
<path id="m_2" d="M150.578 223.26C149.334 223.576 148.158 223.599 147.051 223.33C145.924 223.067 144.954 222.498 144.14 221.625C143.307 220.757 142.708 219.606 142.341 218.171L139.961 208.847L143.204 208.023L145.46 216.86C145.822 218.276 146.451 219.267 147.35 219.833C148.253 220.418 149.317 220.555 150.542 220.244C151.766 219.934 152.644 219.303 153.176 218.353C153.694 217.428 153.772 216.257 153.41 214.842L151.155 206.005L154.398 205.181L156.654 214.018C157.015 215.434 157.645 216.425 158.543 216.991C159.447 217.576 160.511 217.713 161.735 217.402C162.96 217.092 163.838 216.461 164.37 215.511C164.887 214.586 164.965 213.415 164.604 212L162.348 203.163L165.62 202.332L169.656 218.141L166.384 218.972L165.922 217.164C165.553 217.951 165.003 218.63 164.273 219.202C163.543 219.775 162.709 220.18 161.771 220.418C160.508 220.738 159.311 220.757 158.18 220.474C157.048 220.191 156.085 219.611 155.29 218.733C155.056 219.811 154.503 220.756 153.63 221.568C152.762 222.4 151.745 222.963 150.578 223.26Z" fill="url(#paint11_linear_715_46)"/>
</g>
</g>
<defs>
<filter id="filter0_ddddd_715_46" x="0" y="1.99146" width="259.122" height="261" filterUnits="userSpaceOnUse" color-interpolation-filters="sRGB">
<feFlood flood-opacity="0" result="BackgroundImageFix"/>
<feColorMatrix in="SourceAlpha" type="matrix" values="0 0 0 0 0 0 0 0 0 0 0 0 0 0 0 0 0 0 127 0" result="hardAlpha"/>
<feOffset dy="0.412187"/>
<feGaussianBlur stdDeviation="1.66592"/>
<feColorMatrix type="matrix" values="0 0 0 0 0.141176 0 0 0 0 0.129412 0 0 0 0 0.12549 0 0 0 0.0589035 0"/>
<feBlend mode="normal" in2="BackgroundImageFix" result="effect1_dropShadow_715_46"/>
<feColorMatrix in="SourceAlpha" type="matrix" values="0 0 0 0 0 0 0 0 0 0 0 0 0 0 0 0 0 0 127 0" result="hardAlpha"/>
<feOffset dy="1.04245"/>
<feGaussianBlur stdDeviation="4.21324"/>
<feColorMatrix type="matrix" values="0 0 0 0 0.141176 0 0 0 0 0.129412 0 0 0 0 0.12549 0 0 0 0.0843048 0"/>
<feBlend mode="normal" in2="effect1_dropShadow_715_46" result="effect2_dropShadow_715_46"/>
<feColorMatrix in="SourceAlpha" type="matrix" values="0 0 0 0 0 0 0 0 0 0 0 0 0 0 0 0 0 0 127 0" result="hardAlpha"/>
<feOffset dy="2.1265"/>
<feGaussianBlur stdDeviation="8.59462"/>
<feColorMatrix type="matrix" values="0 0 0 0 0.141176 0 0 0 0 0.129412 0 0 0 0 0.12549 0 0 0 0.105695 0"/>
<feBlend mode="normal" in2="effect2_dropShadow_715_46" result="effect3_dropShadow_715_46"/>
<feColorMatrix in="SourceAlpha" type="matrix" values="0 0 0 0 0 0 0 0 0 0 0 0 0 0 0 0 0 0 127 0" result="hardAlpha"/>
<feOffset dy="4.3802"/>
<feGaussianBlur stdDeviation="17.7033"/>
<feColorMatrix type="matrix" values="0 0 0 0 0.141176 0 0 0 0 0.129412 0 0 0 0 0.12549 0 0 0 0.131096 0"/>
<feBlend mode="normal" in2="effect3_dropShadow_715_46" result="effect4_dropShadow_715_46"/>
<feColorMatrix in="SourceAlpha" type="matrix" values="0 0 0 0 0 0 0 0 0 0 0 0 0 0 0 0 0 0 127 0" result="hardAlpha"/>
<feOffset dy="12"/>
<feGaussianBlur stdDeviation="48.5"/>
<feColorMatrix type="matrix" values="0 0 0 0 0.141176 0 0 0 0 0.129412 0 0 0 0 0.12549 0 0 0 0.19 0"/>
<feBlend mode="normal" in2="effect4_dropShadow_715_46" result="effect5_dropShadow_715_46"/>
<feBlend mode="normal" in="SourceGraphic" in2="effect5_dropShadow_715_46" result="shape"/>
</filter>
<linearGradient id="paint0_linear_715_46" x1="128.742" y1="84.3167" x2="128.742" y2="158.125" gradientUnits="userSpaceOnUse">
<stop stop-color="#FDF9F7"/>
<stop offset="0.669792" stop-color="#D1CFCB" stop-opacity="0"/>
</linearGradient>
<linearGradient id="paint1_linear_715_46" x1="129.556" y1="102.678" x2="129.556" y2="153.932" gradientUnits="userSpaceOnUse">
<stop stop-color="#FFF500"/>
<stop offset="1" stop-color="#E06415"/>
</linearGradient>
<linearGradient id="paint2_linear_715_46" x1="10.7321" y1="107.363" x2="21.6968" y2="139.6" gradientUnits="userSpaceOnUse">
<stop stop-color="#DA251C"/>
<stop offset="1" stop-color="#E46713"/>
</linearGradient>
<linearGradient id="paint3_linear_715_46" x1="20.7924" y1="71.1952" x2="23.0285" y2="108.574" gradientUnits="userSpaceOnUse">
<stop stop-color="#DA251C"/>
<stop offset="1" stop-color="#E46713"/>
</linearGradient>
<linearGradient id="paint4_linear_715_46" x1="41.2356" y1="40.339" x2="31.8184" y2="74.8474" gradientUnits="userSpaceOnUse">
<stop stop-color="#DA251C"/>
<stop offset="1" stop-color="#E46713"/>
</linearGradient>
<linearGradient id="paint5_linear_715_46" x1="69.4736" y1="17.5325" x2="49.9964" y2="49.5453" gradientUnits="userSpaceOnUse">
<stop stop-color="#DA251C"/>
<stop offset="1" stop-color="#E46713"/>
</linearGradient>
<linearGradient id="paint6_linear_715_46" x1="118.976" y1="0.999949" x2="82.861" y2="41.7703" gradientUnits="userSpaceOnUse">
<stop stop-color="#DA251C"/>
<stop offset="1" stop-color="#E46713"/>
</linearGradient>
<linearGradient id="paint7_linear_715_46" x1="249.606" y1="132.657" x2="238.048" y2="100.627" gradientUnits="userSpaceOnUse">
<stop stop-color="#DA251C"/>
<stop offset="1" stop-color="#E46713"/>
</linearGradient>
<linearGradient id="paint8_linear_715_46" x1="240.219" y1="169.004" x2="237.293" y2="131.673" gradientUnits="userSpaceOnUse">
<stop stop-color="#DA251C"/>
<stop offset="1" stop-color="#E46713"/>
</linearGradient>
<linearGradient id="paint9_linear_715_46" x1="220.352" y1="200.232" x2="229.13" y2="165.557" gradientUnits="userSpaceOnUse">
<stop stop-color="#DA251C"/>
<stop offset="1" stop-color="#E46713"/>
</linearGradient>
<linearGradient id="paint10_linear_715_46" x1="192.543" y1="223.556" x2="211.424" y2="191.19" gradientUnits="userSpaceOnUse">
<stop stop-color="#DA251C"/>
<stop offset="1" stop-color="#E46713"/>
</linearGradient>
<linearGradient id="paint11_linear_715_46" x1="143.356" y1="241" x2="178.708" y2="199.57" gradientUnits="userSpaceOnUse">
<stop stop-color="#DA251C"/>
<stop offset="1" stop-color="#E46713"/>
</linearGradient>
</defs>
</svg>
