<svg width="384" height="92" viewBox="0 0 384 92" fill="none" xmlns="http://www.w3.org/2000/svg">
<g id="logoaviva 1" clip-path="url(#clip0_911_84)">
<path id="jovem" d="M246.205 29.8945V52.9806C246.205 55.8376 245.33 58.0955 243.579 59.7544C241.859 61.4133 239.585 62.2427 236.759 62.2427C233.933 62.2427 231.644 61.4133 229.893 59.7544C228.173 58.0955 227.313 55.8376 227.313 52.9806H232.612C232.643 54.3937 232.996 55.515 233.672 56.3445C234.378 57.1739 235.407 57.5886 236.759 57.5886C238.111 57.5886 239.14 57.1739 239.846 56.3445C240.553 55.4843 240.906 54.363 240.906 52.9806V29.8945H246.205ZM265.764 62.3349C263.368 62.3349 261.202 61.7973 259.267 60.7221C257.331 59.6161 255.811 58.0801 254.705 56.1141C253.599 54.1173 253.046 51.8133 253.046 49.2021C253.046 46.6216 253.614 44.3329 254.751 42.3361C255.888 40.3393 257.439 38.8033 259.405 37.7281C261.371 36.6529 263.568 36.1153 265.994 36.1153C268.421 36.1153 270.618 36.6529 272.584 37.7281C274.55 38.8033 276.101 40.3393 277.238 42.3361C278.375 44.3329 278.943 46.6216 278.943 49.2021C278.943 51.7825 278.359 54.0712 277.192 56.068C276.024 58.0648 274.427 59.6161 272.4 60.7221C270.403 61.7973 268.191 62.3349 265.764 62.3349ZM265.764 57.7729C267.116 57.7729 268.375 57.4504 269.543 56.8053C270.741 56.1601 271.708 55.1925 272.446 53.9022C273.183 52.612 273.551 51.0453 273.551 49.2021C273.551 47.3589 273.198 45.8075 272.492 44.548C271.785 43.2577 270.848 42.2901 269.681 41.6449C268.513 40.9998 267.254 40.6773 265.902 40.6773C264.551 40.6773 263.291 40.9998 262.124 41.6449C260.987 42.2901 260.081 43.2577 259.405 44.548C258.729 45.8075 258.391 47.3589 258.391 49.2021C258.391 51.9361 259.082 54.0558 260.465 55.5611C261.878 57.0357 263.644 57.7729 265.764 57.7729ZM293.951 57.22L301.14 36.53H306.715L297.038 61.9201H290.771L281.141 36.53H286.763L293.951 57.22ZM333.957 48.603C333.957 49.5553 333.895 50.4155 333.772 51.1835H314.373C314.526 53.211 315.279 54.8392 316.631 56.068C317.982 57.2968 319.641 57.9112 321.607 57.9112C324.433 57.9112 326.43 56.7284 327.598 54.363H333.265C332.497 56.6977 331.1 58.6177 329.072 60.123C327.075 61.5976 324.587 62.3349 321.607 62.3349C319.18 62.3349 316.999 61.7973 315.064 60.7221C313.159 59.6161 311.654 58.0801 310.548 56.1141C309.473 54.1173 308.935 51.8133 308.935 49.2021C308.935 46.5909 309.457 44.3022 310.502 42.3361C311.577 40.3393 313.067 38.8033 314.972 37.7281C316.907 36.6529 319.119 36.1153 321.607 36.1153C324.003 36.1153 326.138 36.6376 328.012 37.6821C329.886 38.7265 331.345 40.2011 332.39 42.1057C333.434 43.9797 333.957 46.1454 333.957 48.603ZM328.473 46.9441C328.442 45.0088 327.751 43.4574 326.4 42.29C325.048 41.1227 323.374 40.539 321.377 40.539C319.564 40.539 318.013 41.1227 316.723 42.29C315.432 43.4267 314.664 44.9781 314.419 46.9441H328.473ZM369.862 36.1153C371.858 36.1153 373.64 36.5301 375.207 37.3595C376.804 38.1889 378.048 39.4177 378.939 41.0459C379.861 42.6741 380.322 44.6401 380.322 46.9441V61.9201H375.115V47.7275C375.115 45.4542 374.546 43.7185 373.41 42.5205C372.273 41.2917 370.722 40.6773 368.756 40.6773C366.79 40.6773 365.223 41.2917 364.055 42.5205C362.919 43.7185 362.351 45.4542 362.351 47.7275V61.9201H357.144V47.7275C357.144 45.4542 356.575 43.7185 355.439 42.5205C354.302 41.2917 352.751 40.6773 350.784 40.6773C348.818 40.6773 347.252 41.2917 346.084 42.5205C344.948 43.7185 344.379 45.4542 344.379 47.7275V61.9201H339.126V36.53H344.379V39.4331C345.239 38.3886 346.33 37.5745 347.651 36.9909C348.972 36.4072 350.385 36.1153 351.89 36.1153C353.918 36.1153 355.73 36.5454 357.328 37.4056C358.925 38.2657 360.154 39.5099 361.014 41.1381C361.782 39.6021 362.98 38.3886 364.608 37.4977C366.237 36.5761 367.988 36.1153 369.862 36.1153Z" fill="url(#paint0_linear_911_84)"/>
<path id="aviva" d="M125.549 54.2705H110.895L108.085 61.9197H104.675L116.425 30.1245H120.065L131.77 61.9197H128.36L125.549 54.2705ZM124.581 51.5978L118.222 34.1796L111.863 51.5978H124.581ZM145.886 58.7863L154.365 36.7601H157.775L147.683 61.9197H144.043L133.951 36.7601H137.407L145.886 58.7863ZM163.759 32.0138C163.114 32.0138 162.561 31.7834 162.1 31.3226C161.64 30.8618 161.409 30.2935 161.409 29.6177C161.409 28.9418 161.64 28.3889 162.1 27.9588C162.561 27.498 163.114 27.2676 163.759 27.2676C164.404 27.2676 164.957 27.498 165.418 27.9588C165.879 28.3889 166.109 28.9418 166.109 29.6177C166.109 30.2935 165.879 30.8618 165.418 31.3226C164.957 31.7834 164.404 32.0138 163.759 32.0138ZM165.372 36.7601V61.9197H162.146V36.7601H165.372ZM181.616 58.7863L190.095 36.7601H193.505L183.413 61.9197H179.773L169.681 36.7601H173.137L181.616 58.7863ZM196.402 49.2938C196.402 46.7133 196.909 44.4554 197.923 42.5201C198.967 40.554 200.396 39.0487 202.208 38.0042C204.051 36.929 206.125 36.3914 208.429 36.3914C210.825 36.3914 212.883 36.9444 214.604 38.0503C216.355 39.1562 217.614 40.5693 218.382 42.2897V36.7601H221.608V61.9197H218.382V56.3441C217.584 58.0644 216.309 59.4929 214.558 60.6295C212.837 61.7354 210.779 62.2884 208.383 62.2884C206.11 62.2884 204.051 61.7508 202.208 60.6756C200.396 59.6004 198.967 58.0797 197.923 56.1137C196.909 54.1476 196.402 51.8743 196.402 49.2938ZM218.382 49.3399C218.382 47.3124 217.968 45.5306 217.138 43.9946C216.309 42.4586 215.172 41.2759 213.728 40.4465C212.315 39.617 210.748 39.2023 209.028 39.2023C207.246 39.2023 205.649 39.6017 204.236 40.4004C202.823 41.1991 201.701 42.3665 200.872 43.9025C200.073 45.4077 199.674 47.2049 199.674 49.2938C199.674 51.3521 200.073 53.1645 200.872 54.7313C201.701 56.2673 202.823 57.45 204.236 58.2794C205.649 59.0781 207.246 59.4775 209.028 59.4775C210.748 59.4775 212.315 59.0628 213.728 58.2333C215.172 57.4039 216.309 56.2212 217.138 54.6852C217.968 53.1492 218.382 51.3674 218.382 49.3399Z" fill="#FDFBFA"/>
<path id="arco" d="M43.2075 84.3298C64.5652 84.3298 81.879 67.016 81.879 45.6583C81.879 24.3006 64.5652 6.98682 43.2075 6.98682C21.8498 6.98682 4.53601 24.3006 4.53601 45.6583C4.53601 67.016 21.8498 84.3298 43.2075 84.3298Z" stroke="url(#paint1_linear_911_84)" stroke-width="4.92005"/>
<path id="fire_3" d="M55.3661 60.1229C33.4228 45.9531 29.8278 27.177 18.2691 24.0098C21.4053 30.6651 23.1891 37.0971 18.2691 40.1475C13.3491 43.1979 7.64668 46.5081 10.0034 55.9901C5.56646 51.348 0.8747 47.6673 1.09196 37.1955C-5.13456 64.8153 16.0489 91.1189 44.7389 91.1189C75.2861 89.9381 94.3757 63.5669 87.0941 34.4402C86.2056 47.0379 78.5717 57.1646 69.1853 62.3861C69.1853 62.3861 77.3098 74.2925 55.3661 60.1229Z" fill="#DA251C"/>
<path id="fire_2" d="M64.5173 49.0037C69.2837 27.1694 65.4614 15.9319 32.0452 0C38.0334 27.1578 27.9123 34.145 16.4978 49.0037C3.51489 64.2557 16.6947 91.0205 40.9996 91.0205C65.3045 91.0205 82.6752 71.3093 73.6685 34.0466C71.3443 40.3594 69.2928 44.2193 64.5173 49.0037Z" fill="#E46713"/>
<path id="fire_1" opacity="0.5" d="M47.4941 58.9417C48.0845 49.8889 59.1053 31.0942 39.9172 21.3525C51.5285 38.8679 34.6035 57.0721 28.3059 67.9945C22.0083 78.9169 31.6515 91.1185 40.4092 91.1185C56.8421 92.3977 70.7659 78.3562 56.8421 59.7289C53.2013 69.7657 46.9037 67.9945 47.4941 58.9417Z" fill="url(#paint2_linear_911_84)"/>
</g>
<defs>
<linearGradient id="paint0_linear_911_84" x1="384" y1="11.0401" x2="351.916" y2="141.382" gradientUnits="userSpaceOnUse">
<stop stop-color="#DA251C"/>
<stop offset="1" stop-color="#E46713"/>
</linearGradient>
<linearGradient id="paint1_linear_911_84" x1="43.2075" y1="-3.64046" x2="43.2075" y2="96.8269" gradientUnits="userSpaceOnUse">
<stop stop-color="#FDF9F7"/>
<stop offset="0.669792" stop-color="#D1CFCB" stop-opacity="0"/>
</linearGradient>
<linearGradient id="paint2_linear_911_84" x1="44.3146" y1="21.3525" x2="44.3146" y2="91.1185" gradientUnits="userSpaceOnUse">
<stop stop-color="#FFF500"/>
<stop offset="1" stop-color="#E06415"/>
</linearGradient>
<clipPath id="clip0_911_84">
<rect width="384" height="91.2" fill="white"/>
</clipPath>
</defs>
</svg>
