<svg viewBox="0 0 183 188" fill="none" xmlns="http://www.w3.org/2000/svg">
<g id="fire">
<path id="arco" d="M88.9256 173.558C132.882 173.558 168.515 137.924 168.515 93.9683C168.515 50.0122 132.882 14.3787 88.9256 14.3787C44.9694 14.3787 9.33594 50.0122 9.33594 93.9683C9.33594 137.924 44.9694 173.558 88.9256 173.558Z" stroke="url(#paint0_linear_839_101)" stroke-width="11.6026"/>
<path id="fire-1" d="M113.949 123.739C68.7876 94.5765 61.3885 55.9334 37.5996 49.4146C44.0543 63.1122 47.7257 76.3497 37.5996 82.6279C27.4738 88.9057 15.7377 95.7185 20.5881 115.233C11.4563 105.679 1.80023 98.1043 2.24736 76.5522C-10.5675 133.397 33.0302 187.532 92.077 187.532C154.946 185.102 194.235 130.827 179.249 70.8818C177.42 96.8087 161.708 117.65 142.39 128.397C142.39 128.397 159.111 152.902 113.949 123.739Z" fill="#DA251C"/>
<path id="fire-2" d="M132.783 100.854C142.593 55.9172 134.726 32.7894 65.952 0C78.2766 55.8935 57.4464 70.2738 33.9542 100.854C7.23402 132.244 34.3594 187.33 84.3812 187.33C134.403 187.33 170.154 146.762 151.617 70.0714C146.834 83.0634 142.612 91.0076 132.783 100.854Z" fill="#E46713"/>
<path id="fire-3" opacity="0.5" d="M97.7468 121.308C98.962 102.677 121.644 63.9953 82.1529 43.946C106.05 79.9946 71.217 117.46 58.2557 139.94C45.2948 162.419 65.1413 187.532 83.1655 187.532C116.986 190.164 145.643 161.265 116.986 122.928C109.493 143.585 96.5317 139.94 97.7468 121.308Z" fill="url(#paint1_linear_839_101)"/>
</g>
<defs>
<linearGradient id="paint0_linear_839_101" x1="88.9256" y1="-7.49338" x2="88.9256" y2="199.278" gradientUnits="userSpaceOnUse">
<stop stop-color="#FDF9F7"/>
<stop offset="0.669792" stop-color="#D1CFCB" stop-opacity="0"/>
</linearGradient>
<linearGradient id="paint1_linear_839_101" x1="91.2032" y1="43.946" x2="91.2032" y2="187.532" gradientUnits="userSpaceOnUse">
<stop stop-color="#FFF500"/>
<stop offset="1" stop-color="#E06415"/>
</linearGradient>
</defs>
</svg>
