<svg viewBox="0 0 764 334" fill="none" xmlns="http://www.w3.org/2000/svg">
<g filter="url(#filter0_d_855_22)">
<path d="M155.719 149H135.406V121.5H64V149H43.6875V92.9844C43.6875 84.8073 45.0938 77.2812 47.9062 70.4062C50.7188 63.5312 54.625 57.6198 59.625 52.6719C64.625 47.724 70.5365 43.8698 77.3594 41.1094C84.1823 38.349 91.6302 36.9688 99.7031 36.9688H145.484C146.891 36.9688 148.219 37.2292 149.469 37.75C150.719 38.2708 151.812 39 152.75 39.9375C153.688 40.875 154.417 41.9688 154.938 43.2188C155.458 44.4688 155.719 45.7969 155.719 47.2031V149ZM64 101.188H135.406V57.2812H99.7031C99.0781 57.2812 97.75 57.3854 95.7188 57.5938C93.7396 57.75 91.4219 58.1927 88.7656 58.9219C86.1615 59.651 83.401 60.7708 80.4844 62.2812C77.5677 63.7917 74.8854 65.875 72.4375 68.5312C69.9896 71.1875 67.9583 74.5208 66.3438 78.5312C64.7812 82.4896 64 87.3073 64 92.9844V101.188ZM326.7 36.9688L273.653 145.016C272.82 146.682 271.57 148.01 269.903 149C268.289 150.042 266.492 150.562 264.512 150.562C262.585 150.562 260.789 150.042 259.122 149C257.507 148.01 256.257 146.682 255.372 145.016L202.403 36.9688H225.137L264.512 117.672L304.044 36.9688H326.7ZM393.853 149H373.541V36.9688H393.853V149ZM564.913 36.9688L511.866 145.016C511.032 146.682 509.782 148.01 508.116 149C506.501 150.042 504.704 150.562 502.725 150.562C500.798 150.562 499.001 150.042 497.334 149C495.72 148.01 494.47 146.682 493.584 145.016L440.616 36.9688H463.35L502.725 117.672L542.256 36.9688H564.913ZM718.55 149H698.237V121.5H626.831V149H606.519V92.9844C606.519 84.8073 607.925 77.2812 610.737 70.4062C613.55 63.5312 617.456 57.6198 622.456 52.6719C627.456 47.724 633.368 43.8698 640.191 41.1094C647.014 38.349 654.461 36.9688 662.534 36.9688H708.316C709.722 36.9688 711.05 37.2292 712.3 37.75C713.55 38.2708 714.644 39 715.581 39.9375C716.519 40.875 717.248 41.9688 717.769 43.2188C718.29 44.4688 718.55 45.7969 718.55 47.2031V149ZM626.831 101.188H698.237V57.2812H662.534C661.909 57.2812 660.581 57.3854 658.55 57.5938C656.571 57.75 654.253 58.1927 651.597 58.9219C648.993 59.651 646.232 60.7708 643.316 62.2812C640.399 63.7917 637.717 65.875 635.269 68.5312C632.821 71.1875 630.79 74.5208 629.175 78.5312C627.612 82.4896 626.831 87.3073 626.831 92.9844V101.188Z" fill="#FDFBFA"/>
</g>
<g filter="url(#filter1_d_855_22)">
<path d="M142.891 256.484C142.891 260.547 142.188 264.323 140.781 267.812C139.375 271.302 137.396 274.323 134.844 276.875C132.344 279.427 129.349 281.432 125.859 282.891C122.37 284.297 118.568 285 114.453 285H40V264.688H114.453C116.953 264.688 118.906 263.984 120.312 262.578C121.719 261.12 122.422 259.089 122.422 256.484V172.969H142.891V256.484Z" fill="url(#paint0_linear_855_22)"/>
<path d="M330.75 239.688C330.75 246.51 329.578 252.786 327.234 258.516C324.891 264.245 321.635 269.193 317.469 273.359C313.302 277.526 308.354 280.781 302.625 283.125C296.948 285.417 290.75 286.562 284.031 286.562H209.531C202.812 286.562 196.589 285.417 190.859 283.125C185.13 280.781 180.182 277.526 176.016 273.359C171.849 269.193 168.568 264.245 166.172 258.516C163.828 252.786 162.656 246.51 162.656 239.688V218.281C162.656 211.51 163.828 205.26 166.172 199.531C168.568 193.75 171.849 188.802 176.016 184.687C180.182 180.521 185.13 177.266 190.859 174.922C196.589 172.578 202.812 171.406 209.531 171.406H284.031C290.75 171.406 296.948 172.578 302.625 174.922C308.354 177.266 313.302 180.521 317.469 184.687C321.635 188.802 324.891 193.75 327.234 199.531C329.578 205.26 330.75 211.51 330.75 218.281V239.688ZM310.438 218.281C310.438 214.271 309.786 210.651 308.484 207.422C307.234 204.141 305.438 201.354 303.094 199.062C300.802 196.719 298.016 194.922 294.734 193.672C291.505 192.37 287.938 191.719 284.031 191.719H209.531C205.573 191.719 201.953 192.37 198.672 193.672C195.443 194.922 192.656 196.719 190.312 199.062C187.969 201.354 186.146 204.141 184.844 207.422C183.594 210.651 182.969 214.271 182.969 218.281V239.688C182.969 243.698 183.594 247.344 184.844 250.625C186.146 253.854 187.969 256.641 190.312 258.984C192.656 261.276 195.443 263.073 198.672 264.375C201.953 265.625 205.573 266.25 209.531 266.25H283.875C287.833 266.25 291.427 265.625 294.656 264.375C297.938 263.073 300.75 261.276 303.094 258.984C305.438 256.641 307.234 253.854 308.484 250.625C309.786 247.344 310.438 243.698 310.438 239.688V218.281Z" fill="url(#paint1_linear_855_22)"/>
<path d="M457.916 174.922L404.869 282.969C404.036 284.635 402.786 285.964 401.119 286.953C399.504 287.995 397.708 288.516 395.728 288.516C393.801 288.516 392.004 287.995 390.338 286.953C388.723 285.964 387.473 284.635 386.588 282.969L333.619 174.922H356.353L395.728 255.625L435.26 174.922H457.916Z" fill="url(#paint2_linear_855_22)"/>
<path d="M564.938 242.031H500.797V221.563H564.938V242.031ZM574.078 287.812H500.797C497.984 287.812 494.911 287.318 491.578 286.328C488.245 285.339 485.146 283.724 482.281 281.484C479.469 279.193 477.099 276.25 475.172 272.656C473.297 269.01 472.359 264.557 472.359 259.297V186.016C472.359 184.609 472.62 183.281 473.141 182.031C473.661 180.781 474.365 179.688 475.25 178.75C476.188 177.813 477.281 177.083 478.531 176.563C479.781 176.042 481.135 175.781 482.594 175.781H574.078V196.094H492.672V259.297C492.672 261.953 493.375 263.984 494.781 265.391C496.188 266.797 498.245 267.5 500.953 267.5H574.078V287.812Z" fill="url(#paint3_linear_855_22)"/>
<path d="M723.87 288.438H703.401V221.719L667.386 285.078C666.5 286.693 665.25 287.917 663.636 288.75C662.073 289.583 660.381 290 658.558 290C656.787 290 655.12 289.583 653.558 288.75C652.047 287.917 650.849 286.693 649.964 285.078L613.792 221.719V288.438H593.48V185.078C593.48 182.734 594.157 180.651 595.511 178.828C596.917 177.005 598.74 175.781 600.98 175.156C602.073 174.896 603.167 174.818 604.261 174.922C605.355 174.974 606.396 175.208 607.386 175.625C608.427 175.99 609.365 176.536 610.198 177.266C611.032 177.943 611.735 178.776 612.308 179.766L658.558 260.156L704.808 179.766C706.006 177.786 707.646 176.38 709.73 175.547C711.865 174.714 714.078 174.583 716.37 175.156C718.558 175.781 720.355 177.005 721.761 178.828C723.167 180.651 723.87 182.734 723.87 185.078V288.438Z" fill="url(#paint4_linear_855_22)"/>
</g>
<defs>
<filter id="filter0_d_855_22" x="3.6875" y="0.96875" width="754.862" height="193.594" filterUnits="userSpaceOnUse" color-interpolation-filters="sRGB">
<feFlood flood-opacity="0" result="BackgroundImageFix"/>
<feColorMatrix in="SourceAlpha" type="matrix" values="0 0 0 0 0 0 0 0 0 0 0 0 0 0 0 0 0 0 127 0" result="hardAlpha"/>
<feOffset dy="4"/>
<feGaussianBlur stdDeviation="20"/>
<feComposite in2="hardAlpha" operator="out"/>
<feColorMatrix type="matrix" values="0 0 0 0 0 0 0 0 0 0 0 0 0 0 0 0 0 0 0.25 0"/>
<feBlend mode="normal" in2="BackgroundImageFix" result="effect1_dropShadow_855_22"/>
<feBlend mode="normal" in="SourceGraphic" in2="effect1_dropShadow_855_22" result="shape"/>
</filter>
<filter id="filter1_d_855_22" x="0" y="135.406" width="763.87" height="198.594" filterUnits="userSpaceOnUse" color-interpolation-filters="sRGB">
<feFlood flood-opacity="0" result="BackgroundImageFix"/>
<feColorMatrix in="SourceAlpha" type="matrix" values="0 0 0 0 0 0 0 0 0 0 0 0 0 0 0 0 0 0 127 0" result="hardAlpha"/>
<feOffset dy="4"/>
<feGaussianBlur stdDeviation="20"/>
<feComposite in2="hardAlpha" operator="out"/>
<feColorMatrix type="matrix" values="0 0 0 0 0.87451 0 0 0 0 0.27451 0 0 0 0 0.0941176 0 0 0 0.2 0"/>
<feBlend mode="normal" in2="BackgroundImageFix" result="effect1_dropShadow_855_22"/>
<feBlend mode="normal" in="SourceGraphic" in2="effect1_dropShadow_855_22" result="shape"/>
</filter>
<linearGradient id="paint0_linear_855_22" x1="723.87" y1="171.406" x2="683.939" y2="401.669" gradientUnits="userSpaceOnUse">
<stop stop-color="#DA251C"/>
<stop offset="1" stop-color="#E46713"/>
</linearGradient>
<linearGradient id="paint1_linear_855_22" x1="723.87" y1="171.406" x2="683.939" y2="401.669" gradientUnits="userSpaceOnUse">
<stop stop-color="#DA251C"/>
<stop offset="1" stop-color="#E46713"/>
</linearGradient>
<linearGradient id="paint2_linear_855_22" x1="723.87" y1="171.406" x2="683.939" y2="401.669" gradientUnits="userSpaceOnUse">
<stop stop-color="#DA251C"/>
<stop offset="1" stop-color="#E46713"/>
</linearGradient>
<linearGradient id="paint3_linear_855_22" x1="723.87" y1="171.406" x2="683.939" y2="401.669" gradientUnits="userSpaceOnUse">
<stop stop-color="#DA251C"/>
<stop offset="1" stop-color="#E46713"/>
</linearGradient>
<linearGradient id="paint4_linear_855_22" x1="723.87" y1="171.406" x2="683.939" y2="401.669" gradientUnits="userSpaceOnUse">
<stop stop-color="#DA251C"/>
<stop offset="1" stop-color="#E46713"/>
</linearGradient>
</defs>
</svg>
