<svg viewBox="0 0 229 55" fill="none" xmlns="http://www.w3.org/2000/svg">
<g id="logoaviva 1" clip-path="url(#clip0_704_24)">
<path id="jovem" class="jovem" d="M146.826 17.8277V31.5951C146.826 33.2989 146.304 34.6454 145.259 35.6347C144.233 36.624 142.878 37.1186 141.192 37.1186C139.507 37.1186 138.142 36.624 137.098 35.6347C136.072 34.6454 135.559 33.2989 135.559 31.5951H138.719C138.737 32.4379 138.948 33.1065 139.351 33.6012C139.772 34.0958 140.386 34.3431 141.192 34.3431C141.998 34.3431 142.612 34.0958 143.033 33.6012C143.455 33.0882 143.665 32.4195 143.665 31.5951V17.8277H146.826ZM158.489 37.1736C157.061 37.1736 155.769 36.853 154.615 36.2118C153.461 35.5523 152.554 34.6363 151.894 33.4638C151.235 32.273 150.905 30.899 150.905 29.3418C150.905 27.8029 151.244 26.4381 151.922 25.2473C152.6 24.0565 153.525 23.1405 154.697 22.4993C155.87 21.8581 157.18 21.5375 158.627 21.5375C160.074 21.5375 161.384 21.8581 162.557 22.4993C163.729 23.1405 164.654 24.0565 165.332 25.2473C166.01 26.4381 166.349 27.8029 166.349 29.3418C166.349 30.8807 166.001 32.2455 165.304 33.4363C164.608 34.6271 163.656 35.5523 162.447 36.2118C161.256 36.853 159.937 37.1736 158.489 37.1736ZM158.489 34.4531C159.296 34.4531 160.047 34.2607 160.743 33.876C161.457 33.4913 162.034 32.9142 162.474 32.1447C162.914 31.3753 163.134 30.441 163.134 29.3418C163.134 28.2426 162.923 27.3174 162.502 26.5663C162.08 25.7969 161.521 25.2198 160.825 24.8351C160.129 24.4503 159.378 24.258 158.572 24.258C157.766 24.258 157.015 24.4503 156.319 24.8351C155.641 25.2198 155.1 25.7969 154.697 26.5663C154.294 27.3174 154.093 28.2426 154.093 29.3418C154.093 30.9723 154.505 32.2363 155.329 33.134C156.172 34.0134 157.225 34.4531 158.489 34.4531ZM175.299 34.1233L179.586 21.7848H182.911L177.14 36.9263H173.403L167.659 21.7848H171.012L175.299 34.1233ZM199.156 28.9845C199.156 29.5525 199.12 30.0654 199.047 30.5234H187.477C187.569 31.7325 188.018 32.7035 188.824 33.4363C189.63 34.1691 190.619 34.5355 191.792 34.5355C193.477 34.5355 194.668 33.8302 195.364 32.4195H198.744C198.286 33.8119 197.453 34.9569 196.244 35.8545C195.053 36.7339 193.569 37.1736 191.792 37.1736C190.345 37.1736 189.044 36.853 187.89 36.2118C186.754 35.5523 185.856 34.6363 185.197 33.4638C184.555 32.273 184.235 30.899 184.235 29.3418C184.235 27.7846 184.546 26.4197 185.169 25.2473C185.81 24.0565 186.699 23.1405 187.835 22.4993C188.989 21.8581 190.308 21.5375 191.792 21.5375C193.221 21.5375 194.494 21.8489 195.612 22.4718C196.729 23.0947 197.599 23.974 198.222 25.1099C198.845 26.2274 199.156 27.5189 199.156 28.9845ZM195.886 27.9953C195.868 26.8411 195.456 25.9159 194.65 25.2198C193.844 24.5236 192.845 24.1755 191.654 24.1755C190.574 24.1755 189.648 24.5236 188.879 25.2198C188.109 25.8976 187.651 26.8228 187.505 27.9953H195.886ZM220.568 21.5375C221.759 21.5375 222.822 21.7848 223.756 22.2794C224.709 22.7741 225.451 23.5069 225.982 24.4778C226.532 25.4488 226.806 26.6213 226.806 27.9953V36.9263H223.701V28.4624C223.701 27.1067 223.362 26.0717 222.684 25.3572C222.007 24.6244 221.081 24.258 219.909 24.258C218.737 24.258 217.802 24.6244 217.106 25.3572C216.428 26.0717 216.089 27.1067 216.089 28.4624V36.9263H212.984V28.4624C212.984 27.1067 212.645 26.0717 211.967 25.3572C211.289 24.6244 210.364 24.258 209.192 24.258C208.019 24.258 207.085 24.6244 206.389 25.3572C205.711 26.0717 205.372 27.1067 205.372 28.4624V36.9263H202.239V21.7848H205.372V23.516C205.885 22.8931 206.535 22.4077 207.323 22.0596C208.111 21.7115 208.954 21.5375 209.851 21.5375C211.06 21.5375 212.141 21.7939 213.094 22.3069C214.047 22.8199 214.779 23.5618 215.292 24.5328C215.75 23.6168 216.465 22.8931 217.436 22.3619C218.407 21.8123 219.451 21.5375 220.568 21.5375Z" fill="url(#paint0_linear_704_24)"/>
<path id="aviva" class="aviva" d="M74.8716 32.3646H66.1329L64.4566 36.9263H62.4231L69.4305 17.9651H71.6014L78.5814 36.9263H76.5478L74.8716 32.3646ZM74.2945 30.7707L70.5022 20.3833L66.71 30.7707H74.2945ZM86.9997 35.0576L92.056 21.9222H94.0895L88.0714 36.9263H85.9005L79.8824 21.9222H81.9434L86.9997 35.0576ZM97.6585 19.0917C97.2738 19.0917 96.944 18.9543 96.6692 18.6795C96.3944 18.4047 96.257 18.0658 96.257 17.6628C96.257 17.2597 96.3944 16.93 96.6692 16.6735C96.944 16.3987 97.2738 16.2613 97.6585 16.2613C98.0432 16.2613 98.373 16.3987 98.6478 16.6735C98.9226 16.93 99.06 17.2597 99.06 17.6628C99.06 18.0658 98.9226 18.4047 98.6478 18.6795C98.373 18.9543 98.0432 19.0917 97.6585 19.0917ZM98.6203 21.9222V36.9263H96.6967V21.9222H98.6203ZM108.308 35.0576L113.364 21.9222H115.397L109.379 36.9263H107.208L101.19 21.9222H103.251L108.308 35.0576ZM117.125 29.3967C117.125 27.8579 117.427 26.5113 118.032 25.3572C118.655 24.1847 119.507 23.287 120.588 22.6641C121.687 22.0229 122.923 21.7023 124.297 21.7023C125.726 21.7023 126.954 22.0321 127.98 22.6916C129.024 23.3511 129.775 24.1939 130.233 25.2198V21.9222H132.157V36.9263H130.233V33.6012C129.757 34.6271 128.997 35.479 127.952 36.1568C126.926 36.8163 125.699 37.1461 124.27 37.1461C122.914 37.1461 121.687 36.8255 120.588 36.1843C119.507 35.5431 118.655 34.6363 118.032 33.4638C117.427 32.2913 117.125 30.9356 117.125 29.3967ZM130.233 29.4242C130.233 28.2151 129.986 27.1525 129.491 26.2365C128.997 25.3205 128.319 24.6152 127.458 24.1206C126.615 23.6259 125.681 23.3786 124.655 23.3786C123.592 23.3786 122.64 23.6168 121.797 24.0931C120.954 24.5694 120.285 25.2656 119.791 26.1816C119.314 27.0793 119.076 28.151 119.076 29.3967C119.076 30.6242 119.314 31.7051 119.791 32.6394C120.285 33.5554 120.954 34.2607 121.797 34.7553C122.64 35.2317 123.592 35.4698 124.655 35.4698C125.681 35.4698 126.615 35.2225 127.458 34.7279C128.319 34.2332 128.997 33.5279 129.491 32.6119C129.986 31.6959 130.233 30.6333 130.233 29.4242Z" fill="#FDFBFA"/>
<path id="arco" class="arco" d="M25.767 50.2902C38.5037 50.2902 48.8289 39.965 48.8289 27.2283C48.8289 14.4916 38.5037 4.1664 25.767 4.1664C13.0302 4.1664 2.70506 14.4916 2.70506 27.2283C2.70506 39.965 13.0302 50.2902 25.767 50.2902Z" stroke="url(#paint1_linear_704_24)" stroke-width="2.93409"/>
<path id="fire_3" class="fire_3" d="M33.0178 35.8545C19.9318 27.4043 17.7879 16.2072 10.8949 14.3183C12.7651 18.2873 13.8289 22.123 10.8949 23.9421C7.96081 25.7613 4.56013 27.7353 5.96559 33.3899C3.31958 30.6216 0.521631 28.4266 0.651193 22.1817C-3.06202 38.6529 9.57082 54.3391 26.6802 54.3391C44.8972 53.635 56.2813 37.9084 51.9389 20.5386C51.4091 28.0512 46.8565 34.0904 41.2589 37.2042C41.2589 37.2042 46.104 44.3046 33.0178 35.8545Z" fill="#DA251C"/>
<path id="fire_2" class="fire_2" d="M38.4752 29.2235C41.3176 16.2026 39.0382 9.50104 19.1103 0C22.6814 16.1957 16.6456 20.3625 9.83856 29.2235C2.09612 38.3191 9.95595 54.2804 24.4503 54.2804C38.9446 54.2804 49.3037 42.5256 43.9325 20.3039C42.5465 24.0685 41.3231 26.3704 38.4752 29.2235Z" fill="#E46713"/>
<path id="fire_1" class="fire_1" opacity="0.5" d="M28.3233 35.1504C28.6754 29.7517 35.2477 18.5434 23.8048 12.7339C30.7292 23.1793 20.636 34.0354 16.8804 40.549C13.1247 47.0627 18.8755 54.3391 24.0982 54.3391C33.898 55.102 42.2015 46.7283 33.898 35.6198C31.7268 41.6053 27.9712 40.549 28.3233 35.1504Z" fill="url(#paint2_linear_704_24)"/>
</g>
<defs>
<linearGradient id="paint0_linear_704_24" x1="229" y1="6.58375" x2="209.866" y2="84.3138" gradientUnits="userSpaceOnUse">
<stop stop-color="#DA251C"/>
<stop offset="1" stop-color="#E46713"/>
</linearGradient>
<linearGradient id="paint1_linear_704_24" x1="25.767" y1="-2.17122" x2="25.767" y2="57.7429" gradientUnits="userSpaceOnUse">
<stop stop-color="#FDF9F7"/>
<stop offset="0.669792" stop-color="#D1CFCB" stop-opacity="0"/>
</linearGradient>
<linearGradient id="paint2_linear_704_24" x1="26.4272" y1="12.7339" x2="26.4272" y2="54.3391" gradientUnits="userSpaceOnUse">
<stop stop-color="#FFF500"/>
<stop offset="1" stop-color="#E06415"/>
</linearGradient>
<clipPath id="clip0_704_24">
<rect width="229" height="54.3875" fill="white"/>
</clipPath>
</defs>
</svg>
